<svg xmlns="http://www.w3.org/2000/svg" width="340" height="93.725" viewBox="0 0 340 93.725"><g transform="translate(-105 -188.138)"><path d="M127.973,188.138h314.27A2.437,2.437,0,0,1,445,190.895v68q0,22.973-22.973,22.973H107.757A2.437,2.437,0,0,1,105,279.106v-68q0-22.973,22.973-22.973Z"/><path d="M137.244,247.814,142.39,228.3q2.091-7.975,13.614-8h11.051a1.605,1.605,0,0,1,1.261.574,1.962,1.962,0,0,1,.5,1.333v25.607a1.775,1.775,0,0,1-.574,1.343,1.928,1.928,0,0,1-1.374.543h-3.854a1.859,1.859,0,0,1-1.927-1.927v-5.167H146.511l-1.374,5.167a2.413,2.413,0,0,1-.923,1.384,2.473,2.473,0,0,1-1.517.543h-4.039a1.41,1.41,0,0,1-1.21-.554,1.333,1.333,0,0,1-.287-.841,3.687,3.687,0,0,1,.082-.492m10.784-11.01h13.06V226.1h-5.843a5.452,5.452,0,0,0-5.413,4.121Z" fill="#fff"/><path d="M174.682,247.814V222.288a1.922,1.922,0,0,1,.574-1.415,1.874,1.874,0,0,1,1.374-.574h3.854a1.841,1.841,0,0,1,1.363.574,1.94,1.94,0,0,1,.564,1.415V243.9h17.858a1.841,1.841,0,0,1,1.363.574,1.891,1.891,0,0,1,.564,1.374v1.927a1.925,1.925,0,0,1-1.927,1.927H176.63a1.929,1.929,0,0,1-1.374-.543,1.775,1.775,0,0,1-.574-1.343Z" fill="#fff"/><path d="M205.538,247.814V222.288a1.922,1.922,0,0,1,.574-1.415,1.874,1.874,0,0,1,1.374-.574h3.854a1.841,1.841,0,0,1,1.363.574,1.94,1.94,0,0,1,.564,1.415V243.9h17.858a1.841,1.841,0,0,1,1.363.574,1.891,1.891,0,0,1,.564,1.374v1.927a1.925,1.925,0,0,1-1.927,1.927H207.486a1.929,1.929,0,0,1-1.374-.543,1.775,1.775,0,0,1-.574-1.343Z" fill="#fff"/><path d="M248.552,224.175v-1.927A1.893,1.893,0,0,1,250.5,220.3h26.018a1.893,1.893,0,0,1,1.948,1.948v1.927a1.856,1.856,0,0,1-.554,1.384,1.909,1.909,0,0,1-1.394.543h-9.144v21.712a1.791,1.791,0,0,1-.564,1.343,1.893,1.893,0,0,1-1.363.543h-3.875a1.893,1.893,0,0,1-1.363-.543,1.791,1.791,0,0,1-.564-1.343V226.1H250.5a1.909,1.909,0,0,1-1.394-.543,1.856,1.856,0,0,1-.554-1.384Z" fill="#e10098"/><path d="M281.807,247.773V222.247a1.909,1.909,0,0,1,.554-1.374,1.808,1.808,0,0,1,1.353-.574h16.914a11.564,11.564,0,0,1,7.7,2.522,8.427,8.427,0,0,1,3,6.807q0,5.966-7.729,7.483a6.429,6.429,0,0,1,2.266,1.558,21.213,21.213,0,0,1,2.409,3.178l3.731,5.925a2.118,2.118,0,0,1,.349,1.025.984.984,0,0,1-.062.349q-.205.554-1,.554h-4.921a3.342,3.342,0,0,1-1.722-.564,4.172,4.172,0,0,1-1.415-1.363l-3.485-5.454q-2.132-3.362-5.208-3.362h-5v8.816a1.925,1.925,0,0,1-1.927,1.927h-3.854a1.891,1.891,0,0,1-1.374-.564,1.841,1.841,0,0,1-.574-1.363m7.729-14.618h8.734a7.94,7.94,0,0,0,3.711-.841,3.041,3.041,0,0,0,.01-5.372,7.924,7.924,0,0,0-3.721-.841h-8.734Z" fill="#e10098"/><path d="M313.3,247.814l5.146-19.518q2.091-7.975,13.614-8H343.11a1.605,1.605,0,0,1,1.261.574,1.962,1.962,0,0,1,.5,1.333v25.607a1.775,1.775,0,0,1-.574,1.343,1.928,1.928,0,0,1-1.374.543h-3.854a1.859,1.859,0,0,1-1.927-1.927v-5.167H322.566l-1.374,5.167a2.413,2.413,0,0,1-.923,1.384,2.473,2.473,0,0,1-1.517.543h-4.039a1.41,1.41,0,0,1-1.21-.554,1.333,1.333,0,0,1-.287-.841,3.686,3.686,0,0,1,.082-.492m10.784-11.01h13.06V226.1H331.3a5.452,5.452,0,0,0-5.413,4.121Z" fill="#e10098"/><path d="M350.736,247.814V222.288a1.922,1.922,0,0,1,.574-1.415,1.874,1.874,0,0,1,1.374-.574h11.461q8.9,0,12.947,3.557t4.049,11.153q0,7.6-4.049,11.143T364.145,249.7H352.684a1.929,1.929,0,0,1-1.374-.543,1.775,1.775,0,0,1-.574-1.343m7.729-3.916h5.454q5.495,0,7.494-2.009t2-6.879q0-4.869-1.989-6.889t-7.5-2.019h-5.454Z" fill="#e10098"/><path d="M385.324,247.732V222.206a1.808,1.808,0,0,1,.574-1.353,1.91,1.91,0,0,1,1.374-.554h23.639a1.841,1.841,0,0,1,1.363.574,1.891,1.891,0,0,1,.564,1.374v1.927a1.925,1.925,0,0,1-1.927,1.927H393.053v5.966H408.43A1.925,1.925,0,0,1,410.357,234v1.927a1.925,1.925,0,0,1-1.927,1.927H393.053V243.9H410.87a1.807,1.807,0,0,1,1.343.554,1.858,1.858,0,0,1,.543,1.353v1.968a1.841,1.841,0,0,1-.574,1.363,1.891,1.891,0,0,1-1.374.564H387.272a1.943,1.943,0,0,1-1.948-1.968Z" fill="#e10098"/></g></svg>